{
  "accessors": [
    {
      "bufferView": 2,
      "componentType": 5126,
      "count": 586,
      "max": [
        996.3951416015625,
        655.9151611328125,
        1243.48974609375
      ],
      "min": [
        -994.800537109375,
        8.6458206176757812,
        -1183.7867431640625
      ],
      "type": "VEC3"
    },
    {
      "bufferView": 2,
      "byteOffset": 7032,
      "componentType": 5126,
      "count": 586,
      "max": [
        0.99999946355819702,
        1,
        0.99999499320983887
      ],
      "min": [
        -0.9999995231628418,
        -0.99971169233322144,
        -1
      ],
      "type": "VEC3"
    },
    {
      "bufferView": 3,
      "componentType": 5126,
      "count": 586,
      "max": [
        0.98354572057723999,
        0.99999499320983887,
        0.99971169233322144,
        1
      ],
      "min": [
        -0.98354578018188477,
        -0.99950706958770752,
        -1,
        -1
      ],
      "type": "VEC4"
    },
    {
      "bufferView": 1,
      "componentType": 5126,
      "count": 586,
      "max": [
        0.99486130475997925,
        0.99659371376037598
      ],
      "min": [
        0.0051589561626315117,
        0.00396709144115448
      ],
      "type": "VEC2"
    },
    {
      "bufferView": 0,
      "componentType": 5125,
      "count": 2118,
      "max": [
        585
      ],
      "min": [
        0
      ],
      "type": "SCALAR"
    }
  ],
  "asset": {
    "extras": {
      "author": "Duane's Mind (https://sketchfab.com/duanesmind)",
      "license": "CC-BY-4.0 (http://creativecommons.org/licenses/by/4.0/)",
      "source": "https://sketchfab.com/3d-models/low-poly-spaceship-810-255d433c2b1e42819ffb03575856eb51",
      "title": "Low Poly Spaceship 8/10"
    },
    "generator": "Sketchfab-4.86.2",
    "version": "2.0"
  },
  "bufferViews": [
    {
      "buffer": 0,
      "byteLength": 8472,
      "byteOffset": 0,
      "name": "floatBufferViews",
      "target": 34963
    },
    {
      "buffer": 0,
      "byteLength": 4688,
      "byteOffset": 8472,
      "byteStride": 8,
      "name": "floatBufferViews",
      "target": 34962
    },
    {
      "buffer": 0,
      "byteLength": 14064,
      "byteOffset": 13160,
      "byteStride": 12,
      "name": "floatBufferViews",
      "target": 34962
    },
    {
      "buffer": 0,
      "byteLength": 9376,
      "byteOffset": 27224,
      "byteStride": 16,
      "name": "floatBufferViews",
      "target": 34962
    }
  ],
  "buffers": [
    {
      "byteLength": 36600,
      "uri": "scene.bin"
    }
  ],
  "extensionsRequired": [
    "KHR_materials_pbrSpecularGlossiness"
  ],
  "extensionsUsed": [
    "KHR_materials_pbrSpecularGlossiness"
  ],
  "images": [
    {
      "uri": "textures/Spaceship8_Material_diffuse.png"
    },
    {
      "uri": "textures/Spaceship8_Material_emissive.png"
    },
    {
      "uri": "textures/Spaceship8_Material_specularGlossiness.png"
    }
  ],
  "materials": [
    {
      "doubleSided": true,
      "emissiveFactor": [
        1,
        1,
        1
      ],
      "emissiveTexture": {
        "index": 1,
        "texCoord": 0
      },
      "extensions": {
        "KHR_materials_pbrSpecularGlossiness": {
          "diffuseFactor": [
            1,
            1,
            1,
            1
          ],
          "diffuseTexture": {
            "index": 0,
            "texCoord": 0
          },
          "glossinessFactor": 0.60776515149999999,
          "specularFactor": [
            1,
            1,
            1
          ],
          "specularGlossinessTexture": {
            "index": 2,
            "texCoord": 0
          }
        }
      },
      "name": "Spaceship8_Material"
    }
  ],
  "meshes": [
    {
      "name": "Spaceship8_Spaceship8_Material_0",
      "primitives": [
        {
          "attributes": {
            "NORMAL": 1,
            "POSITION": 0,
            "TANGENT": 2,
            "TEXCOORD_0": 3
          },
          "indices": 4,
          "material": 0,
          "mode": 4
        }
      ]
    }
  ],
  "nodes": [
    {
      "children": [
        1
      ],
      "name": "RootNode (gltf orientation matrix)",
      "rotation": [
        -0.70710678118654746,
        -0,
        -0,
        0.70710678118654757
      ]
    },
    {
      "children": [
        2
      ],
      "name": "RootNode (model correction matrix)"
    },
    {
      "children": [
        3
      ],
      "matrix": [
        1,
        0,
        0,
        0,
        0,
        0,
        1,
        0,
        0,
        -1,
        0,
        0,
        0,
        0,
        0,
        1
      ],
      "name": "e84b01b914334c639e7ca5818d332ed4.fbx"
    },
    {
      "children": [
        4
      ],
      "name": "RootNode"
    },
    {
      "children": [
        5
      ],
      "matrix": [
        0.11200025677680969,
        0,
        0,
        0,
        0,
        0.11200025677680969,
        0,
        0,
        0,
        0,
        0.11200025677680969,
        0,
        0,
        -0.0857892706990242,
        0,
        1
      ],
      "name": "Spaceship8"
    },
    {
      "mesh": 0,
      "name": "Spaceship8_Spaceship8_Material_0"
    }
  ],
  "samplers": [
    {
      "magFilter": 9729,
      "minFilter": 9987,
      "wrapS": 10497,
      "wrapT": 10497
    }
  ],
  "scene": 0,
  "scenes": [
    {
      "name": "OSG_Scene",
      "nodes": [
        0
      ]
    }
  ],
  "textures": [
    {
      "sampler": 0,
      "source": 0
    },
    {
      "sampler": 0,
      "source": 1
    },
    {
      "sampler": 0,
      "source": 2
    }
  ]
}

